<svg width="141" height="42" viewBox="0 0 141 42" fill="none" xmlns="http://www.w3.org/2000/svg">
<path d="M2.21484 30.5566C2.21484 29.8066 2.47266 29.1797 2.98828 28.6758C3.51562 28.1719 4.21289 27.9199 5.08008 27.9199C5.94727 27.9199 6.63867 28.1719 7.1543 28.6758C7.68164 29.1797 7.94531 29.8066 7.94531 30.5566C7.94531 31.3066 7.68164 31.9336 7.1543 32.4375C6.63867 32.9414 5.94727 33.1934 5.08008 33.1934C4.21289 33.1934 3.51562 32.9414 2.98828 32.4375C2.47266 31.9336 2.21484 31.3066 2.21484 30.5566ZM23.0534 27.7441C23.0534 27.3809 22.9479 27.0527 22.737 26.7598C22.526 26.4668 22.1334 26.1973 21.5592 25.9512C20.9967 25.6934 20.1823 25.459 19.1159 25.248C18.1549 25.0371 17.2584 24.7734 16.4264 24.457C15.6061 24.1289 14.8912 23.7363 14.2819 23.2793C13.6842 22.8223 13.2155 22.2832 12.8756 21.6621C12.5358 21.0293 12.3659 20.3086 12.3659 19.5C12.3659 18.7031 12.5358 17.9531 12.8756 17.25C13.2272 16.5469 13.7252 15.9258 14.3698 15.3867C15.026 14.8359 15.8229 14.4082 16.7604 14.1035C17.7096 13.7871 18.776 13.6289 19.9596 13.6289C21.612 13.6289 23.0299 13.8926 24.2135 14.4199C25.4088 14.9473 26.3229 15.6738 26.9557 16.5996C27.6002 17.5137 27.9225 18.5566 27.9225 19.7285H22.86C22.86 19.2363 22.7545 18.7969 22.5436 18.4102C22.3444 18.0117 22.028 17.7012 21.5944 17.4785C21.1725 17.2441 20.6217 17.127 19.942 17.127C19.3795 17.127 18.8932 17.2266 18.483 17.4258C18.0729 17.6133 17.7565 17.8711 17.5338 18.1992C17.3229 18.5156 17.2174 18.8672 17.2174 19.2539C17.2174 19.5469 17.276 19.8105 17.3932 20.0449C17.5221 20.2676 17.7272 20.4727 18.0084 20.6602C18.2897 20.8477 18.653 21.0234 19.0983 21.1875C19.5553 21.3398 20.1178 21.4805 20.7858 21.6094C22.1569 21.8906 23.3815 22.2598 24.4596 22.7168C25.5377 23.1621 26.3932 23.7715 27.026 24.5449C27.6588 25.3066 27.9752 26.3086 27.9752 27.5508C27.9752 28.3945 27.7877 29.168 27.4127 29.8711C27.0377 30.5742 26.4987 31.1895 25.7955 31.7168C25.0924 32.2324 24.2487 32.6367 23.2643 32.9297C22.2916 33.2109 21.1959 33.3516 19.9772 33.3516C18.2077 33.3516 16.7077 33.0352 15.4772 32.4023C14.2584 31.7695 13.3327 30.9668 12.6998 29.9941C12.0787 29.0098 11.7682 28.002 11.7682 26.9707H16.567C16.5905 27.6621 16.7662 28.2188 17.0944 28.6406C17.4342 29.0625 17.862 29.3672 18.3776 29.5547C18.9049 29.7422 19.4733 29.8359 20.0827 29.8359C20.7389 29.8359 21.2838 29.748 21.7174 29.5723C22.151 29.3848 22.4791 29.1387 22.7018 28.834C22.9362 28.5176 23.0534 28.1543 23.0534 27.7441ZM39.4798 29.3965C40.1009 29.3965 40.6516 29.2793 41.1321 29.0449C41.6126 28.7988 41.9876 28.459 42.2571 28.0254C42.5384 27.5801 42.6848 27.0586 42.6966 26.4609H47.4602C47.4485 27.7969 47.0911 28.9863 46.388 30.0293C45.6848 31.0605 44.7415 31.875 43.5579 32.4727C42.3743 33.0586 41.0501 33.3516 39.5852 33.3516C38.1087 33.3516 36.8196 33.1055 35.718 32.6133C34.6282 32.1211 33.72 31.4414 32.9934 30.5742C32.2669 29.6953 31.722 28.6758 31.3587 27.5156C30.9954 26.3438 30.8137 25.0898 30.8137 23.7539V23.2441C30.8137 21.8965 30.9954 20.6426 31.3587 19.4824C31.722 18.3105 32.2669 17.291 32.9934 16.4238C33.72 15.5449 34.6282 14.8594 35.718 14.3672C36.8079 13.875 38.0852 13.6289 39.5501 13.6289C41.1087 13.6289 42.4739 13.9277 43.6458 14.5254C44.8294 15.123 45.7552 15.9785 46.4231 17.0918C47.1028 18.1934 47.4485 19.5 47.4602 21.0117H42.6966C42.6848 20.3789 42.5501 19.8047 42.2923 19.2891C42.0462 18.7734 41.6829 18.3633 41.2024 18.0586C40.7337 17.7422 40.1536 17.584 39.4622 17.584C38.7239 17.584 38.1204 17.7422 37.6516 18.0586C37.1829 18.3633 36.8196 18.7852 36.5618 19.3242C36.304 19.8516 36.1223 20.4551 36.0169 21.1348C35.9231 21.8027 35.8762 22.5059 35.8762 23.2441V23.7539C35.8762 24.4922 35.9231 25.2012 36.0169 25.8809C36.1106 26.5605 36.2864 27.1641 36.5442 27.6914C36.8137 28.2188 37.1829 28.6348 37.6516 28.9395C38.1204 29.2441 38.7298 29.3965 39.4798 29.3965ZM49.9472 23.6836V23.3145C49.9472 21.9199 50.1464 20.6367 50.5448 19.4648C50.9433 18.2812 51.5234 17.2559 52.2851 16.3887C53.0468 15.5215 53.9843 14.8477 55.0976 14.3672C56.2109 13.875 57.4882 13.6289 58.9296 13.6289C60.371 13.6289 61.6542 13.875 62.7792 14.3672C63.9042 14.8477 64.8476 15.5215 65.6093 16.3887C66.3827 17.2559 66.9687 18.2812 67.3671 19.4648C67.7655 20.6367 67.9648 21.9199 67.9648 23.3145V23.6836C67.9648 25.0664 67.7655 26.3496 67.3671 27.5332C66.9687 28.7051 66.3827 29.7305 65.6093 30.6094C64.8476 31.4766 63.9101 32.1504 62.7968 32.6309C61.6835 33.1113 60.4062 33.3516 58.9648 33.3516C57.5234 33.3516 56.2402 33.1113 55.1152 32.6309C54.0019 32.1504 53.0585 31.4766 52.2851 30.6094C51.5234 29.7305 50.9433 28.7051 50.5448 27.5332C50.1464 26.3496 49.9472 25.0664 49.9472 23.6836ZM55.0097 23.3145V23.6836C55.0097 24.4805 55.08 25.2246 55.2206 25.916C55.3613 26.6074 55.5839 27.2168 55.8886 27.7441C56.205 28.2598 56.6152 28.6641 57.1191 28.957C57.623 29.25 58.2382 29.3965 58.9648 29.3965C59.6679 29.3965 60.2714 29.25 60.7753 28.957C61.2792 28.6641 61.6835 28.2598 61.9882 27.7441C62.2929 27.2168 62.5155 26.6074 62.6562 25.916C62.8085 25.2246 62.8847 24.4805 62.8847 23.6836V23.3145C62.8847 22.541 62.8085 21.8145 62.6562 21.1348C62.5155 20.4434 62.287 19.834 61.9706 19.3066C61.6659 18.7676 61.2616 18.3457 60.7577 18.041C60.2538 17.7363 59.6445 17.584 58.9296 17.584C58.2148 17.584 57.6054 17.7363 57.1015 18.041C56.6093 18.3457 56.205 18.7676 55.8886 19.3066C55.5839 19.834 55.3613 20.4434 55.2206 21.1348C55.08 21.8145 55.0097 22.541 55.0097 23.3145ZM76.4986 17.918V33H71.4185V13.9805H76.1822L76.4986 17.918ZM75.7955 22.8223H74.3892C74.3892 21.498 74.5474 20.2793 74.8638 19.166C75.192 18.041 75.6666 17.0684 76.2877 16.248C76.9205 15.416 77.6998 14.7715 78.6255 14.3145C79.5513 13.8574 80.6236 13.6289 81.8423 13.6289C82.6861 13.6289 83.4595 13.7578 84.1627 14.0156C84.8658 14.2617 85.4693 14.6543 85.9732 15.1934C86.4888 15.7207 86.8873 16.4121 87.1685 17.2676C87.4498 18.1113 87.5904 19.125 87.5904 20.3086V33H82.5279V20.8711C82.5279 20.0039 82.4107 19.3359 82.1763 18.8672C81.942 18.3984 81.608 18.0703 81.1744 17.8828C80.7525 17.6953 80.2427 17.6016 79.6451 17.6016C78.9888 17.6016 78.4146 17.7363 77.9224 18.0059C77.442 18.2754 77.0435 18.6504 76.7271 19.1309C76.4107 19.5996 76.1763 20.1504 76.024 20.7832C75.8716 21.416 75.7955 22.0957 75.7955 22.8223ZM87.1158 22.2422L85.3052 22.4707C85.3052 21.2285 85.4576 20.0742 85.7623 19.0078C86.0787 17.9414 86.5416 17.0039 87.1509 16.1953C87.772 15.3867 88.5396 14.7598 89.4537 14.3145C90.3677 13.8574 91.4224 13.6289 92.6177 13.6289C93.5318 13.6289 94.3638 13.7637 95.1138 14.0332C95.8638 14.291 96.5025 14.707 97.0298 15.2812C97.5689 15.8438 97.9791 16.582 98.2603 17.4961C98.5533 18.4102 98.6998 19.5293 98.6998 20.8535V33H93.6197V20.8535C93.6197 19.9746 93.5025 19.3066 93.2681 18.8496C93.0455 18.3809 92.7173 18.0586 92.2838 17.8828C91.8619 17.6953 91.358 17.6016 90.772 17.6016C90.1627 17.6016 89.6295 17.7246 89.1724 17.9707C88.7154 18.2051 88.3345 18.5332 88.0298 18.9551C87.7252 19.377 87.4966 19.8691 87.3443 20.4316C87.192 20.9824 87.1158 21.5859 87.1158 22.2422ZM113.245 28.7109V20.2383C113.245 19.6289 113.146 19.1074 112.946 18.6738C112.747 18.2285 112.437 17.8828 112.015 17.6367C111.605 17.3906 111.071 17.2676 110.415 17.2676C109.853 17.2676 109.366 17.3672 108.956 17.5664C108.546 17.7539 108.23 18.0293 108.007 18.3926C107.784 18.7441 107.673 19.1602 107.673 19.6406H102.611C102.611 18.832 102.798 18.0645 103.173 17.3379C103.548 16.6113 104.093 15.9727 104.808 15.4219C105.523 14.8594 106.372 14.4199 107.357 14.1035C108.353 13.7871 109.466 13.6289 110.696 13.6289C112.173 13.6289 113.486 13.875 114.634 14.3672C115.782 14.8594 116.685 15.5977 117.341 16.582C118.009 17.5664 118.343 18.7969 118.343 20.2734V28.4121C118.343 29.4551 118.407 30.3105 118.536 30.9785C118.665 31.6348 118.853 32.209 119.099 32.7012V33H113.984C113.738 32.4844 113.55 31.8398 113.421 31.0664C113.304 30.2812 113.245 29.4961 113.245 28.7109ZM113.913 21.416L113.948 24.2812H111.118C110.45 24.2812 109.87 24.3574 109.378 24.5098C108.886 24.6621 108.482 24.8789 108.165 25.1602C107.849 25.4297 107.614 25.7461 107.462 26.1094C107.321 26.4727 107.251 26.8711 107.251 27.3047C107.251 27.7383 107.351 28.1309 107.55 28.4824C107.749 28.8223 108.036 29.0918 108.411 29.291C108.786 29.4785 109.226 29.5723 109.73 29.5723C110.491 29.5723 111.154 29.4199 111.716 29.1152C112.279 28.8105 112.712 28.4355 113.017 27.9902C113.333 27.5449 113.497 27.123 113.509 26.7246L114.845 28.8691C114.657 29.3496 114.4 29.8477 114.071 30.3633C113.755 30.8789 113.351 31.3652 112.859 31.8223C112.366 32.2676 111.775 32.6367 111.083 32.9297C110.392 33.2109 109.571 33.3516 108.622 33.3516C107.415 33.3516 106.32 33.1113 105.335 32.6309C104.363 32.1387 103.589 31.4648 103.015 30.6094C102.452 29.7422 102.171 28.7578 102.171 27.6562C102.171 26.6602 102.359 25.7754 102.734 25.002C103.109 24.2285 103.659 23.5781 104.386 23.0508C105.124 22.5117 106.044 22.1074 107.146 21.8379C108.247 21.5566 109.525 21.416 110.978 21.416H113.913ZM127.668 17.6367V40.3125H122.605V13.9805H127.299L127.668 17.6367ZM139.709 23.2793V23.6484C139.709 25.0312 139.545 26.3145 139.217 27.498C138.9 28.6816 138.431 29.7129 137.81 30.5918C137.189 31.459 136.416 32.1387 135.49 32.6309C134.576 33.1113 133.521 33.3516 132.326 33.3516C131.166 33.3516 130.158 33.1172 129.303 32.6484C128.447 32.1797 127.726 31.5234 127.14 30.6797C126.566 29.8242 126.103 28.834 125.752 27.709C125.4 26.584 125.131 25.377 124.943 24.0879V23.1211C125.131 21.7383 125.4 20.4727 125.752 19.3242C126.103 18.1641 126.566 17.1621 127.14 16.3184C127.726 15.4629 128.441 14.8008 129.285 14.332C130.14 13.8633 131.142 13.6289 132.291 13.6289C133.498 13.6289 134.558 13.8574 135.473 14.3145C136.398 14.7715 137.172 15.4277 137.793 16.2832C138.426 17.1387 138.9 18.1582 139.217 19.3418C139.545 20.5254 139.709 21.8379 139.709 23.2793ZM134.629 23.6484V23.2793C134.629 22.4707 134.558 21.7266 134.418 21.0469C134.289 20.3555 134.078 19.752 133.785 19.2363C133.504 18.7207 133.129 18.3223 132.66 18.041C132.203 17.748 131.646 17.6016 130.99 17.6016C130.299 17.6016 129.707 17.7129 129.215 17.9355C128.734 18.1582 128.342 18.4805 128.037 18.9023C127.732 19.3242 127.504 19.8281 127.351 20.4141C127.199 21 127.105 21.6621 127.07 22.4004V24.8438C127.129 25.7109 127.293 26.4902 127.562 27.1816C127.832 27.8613 128.248 28.4004 128.81 28.7988C129.373 29.1973 130.111 29.3965 131.025 29.3965C131.693 29.3965 132.256 29.25 132.713 28.957C133.17 28.6523 133.539 28.2363 133.82 27.709C134.113 27.1816 134.318 26.5723 134.435 25.8809C134.564 25.1895 134.629 24.4453 134.629 23.6484Z" fill="black"/>
</svg>
